<svg id="svg" version="1.1" xmlns="http://www.w3.org/2000/svg" xmlns:xlink="http://www.w3.org/1999/xlink" width="400" height="400" viewBox="0, 0, 400,400"><g id="svgg"><path id="path1" d="M95.490 178.683 C 94.945 179.515,94.884 181.368,94.993 193.819 C 95.133 209.776,95.102 209.598,98.131 212.334 C 101.432 215.317,100.582 215.216,122.559 215.226 L 142.188 215.234 142.188 218.288 C 142.188 225.609,144.258 228.001,150.781 228.221 L 153.711 228.320 153.841 229.686 C 154.044 231.836,154.410 232.031,158.223 232.031 C 162.770 232.031,162.891 231.905,162.891 227.149 C 162.891 223.666,162.842 223.456,161.861 222.685 C 159.713 220.994,153.906 221.780,153.906 223.761 C 153.906 224.067,153.029 224.216,151.270 224.210 C 147.155 224.197,146.094 222.962,146.094 218.190 L 146.094 215.234 151.697 215.234 C 158.652 215.234,158.594 215.275,158.594 210.493 C 158.594 205.784,158.745 205.894,152.051 205.768 L 146.485 205.664 146.421 197.066 C 146.355 188.127,146.500 187.156,148.030 186.337 C 148.523 186.073,160.838 185.938,184.313 185.938 L 219.848 185.938 220.430 184.277 C 220.750 183.364,221.136 182.310,221.290 181.934 C 221.554 181.285,219.667 181.250,184.890 181.250 L 148.212 181.250 146.475 182.129 C 145.460 182.642,144.247 183.712,143.560 184.701 L 142.383 186.393 142.266 196.126 L 142.149 205.859 123.870 205.859 C 106.657 205.859,105.552 205.818,104.943 205.145 C 104.370 204.511,104.297 203.007,104.297 191.838 C 104.297 183.905,104.147 178.966,103.893 178.490 C 103.208 177.211,96.352 177.368,95.490 178.683 M110.324 242.705 C 110.215 242.990,110.176 244.879,110.238 246.904 L 110.352 250.586 115.234 250.621 L 120.117 250.656 120.219 267.724 L 120.321 284.792 124.516 284.681 L 128.711 284.570 128.813 267.687 L 128.915 250.804 134.086 250.695 L 139.258 250.586 139.373 247.266 C 139.436 245.439,139.389 243.550,139.268 243.066 L 139.048 242.188 124.785 242.188 C 113.305 242.188,110.484 242.288,110.324 242.705 M145.497 242.662 C 145.391 242.938,145.350 252.480,145.406 263.867 L 145.508 284.570 149.707 284.681 L 153.906 284.792 153.906 276.185 L 153.906 267.578 160.352 267.578 L 166.797 267.578 166.875 274.512 C 166.918 278.325,166.962 282.148,166.973 283.008 L 166.992 284.570 171.289 284.570 L 175.586 284.570 175.694 264.258 C 175.826 239.438,176.380 242.135,171.181 242.272 L 166.992 242.383 166.887 250.879 L 166.782 259.375 160.352 259.375 L 153.921 259.375 153.816 250.879 L 153.711 242.383 149.700 242.271 C 146.710 242.188,145.640 242.288,145.497 242.662 M195.117 242.578 C 194.337 243.840,181.284 284.175,181.565 284.456 C 181.751 284.642,183.716 284.744,185.931 284.682 L 189.959 284.570 190.451 282.813 C 190.721 281.846,191.228 280.044,191.576 278.809 L 192.209 276.563 199.158 276.563 L 206.107 276.563 207.019 279.590 C 208.658 285.029,208.349 284.766,213.096 284.766 C 215.976 284.766,217.188 284.629,217.188 284.305 C 217.188 283.834,215.782 279.496,207.941 255.762 L 203.457 242.188 199.408 242.188 C 197.130 242.188,195.253 242.358,195.117 242.578 M223.638 243.035 C 223.516 243.536,223.465 253.086,223.525 264.258 L 223.633 284.570 227.832 284.681 L 232.031 284.792 232.031 277.552 L 232.031 270.313 235.298 270.313 C 246.471 270.313,251.367 265.962,251.367 256.034 C 251.367 245.217,247.757 242.524,232.925 242.276 L 223.859 242.125 223.638 243.035 M265.852 243.835 C 265.265 245.399,252.345 284.455,252.344 284.668 C 252.344 284.722,254.267 284.766,256.618 284.766 C 261.551 284.766,261.127 285.088,262.513 280.273 L 263.525 276.758 270.141 276.661 C 278.009 276.546,277.525 276.310,278.836 280.899 L 279.886 284.570 284.279 284.681 C 286.695 284.742,288.672 284.643,288.672 284.461 C 288.672 284.280,285.536 274.738,281.703 263.257 L 274.733 242.383 270.607 242.272 L 266.481 242.162 265.852 243.835 M240.197 250.885 C 243.354 252.507,243.934 258.380,241.191 260.956 C 240.304 261.789,239.858 261.873,236.222 261.893 L 232.227 261.914 232.103 256.696 C 232.036 253.826,232.074 251.233,232.189 250.934 C 232.461 250.225,238.836 250.185,240.197 250.885 M272.265 259.180 C 272.980 261.973,273.873 265.166,274.250 266.276 C 275.115 268.824,275.227 268.750,270.508 268.750 C 265.602 268.750,265.846 269.115,267.426 264.138 C 268.155 261.840,269.138 258.511,269.610 256.739 C 270.649 252.842,270.643 252.837,272.265 259.180 M201.303 260.841 C 202.342 264.654,203.259 267.993,203.341 268.262 C 203.455 268.632,202.454 268.750,199.206 268.750 C 194.296 268.750,194.500 268.976,195.827 265.010 C 196.324 263.522,197.243 260.415,197.867 258.105 C 198.492 255.796,199.095 253.907,199.208 253.907 C 199.321 253.908,200.264 257.028,201.303 260.841 " stroke="none" fill="#12193b" fill-rule="evenodd" data-index="1"></path><path id="path3" d="M116.535 119.516 C 103.988 122.504,100.023 138.176,109.762 146.289 C 110.793 147.148,114.772 149.434,118.604 151.367 C 127.132 155.671,128.907 157.751,126.718 160.876 C 126.374 161.367,126.198 161.875,126.327 162.004 C 126.456 162.133,125.646 162.561,124.526 162.955 C 119.084 164.872,114.844 162.531,114.844 157.609 L 114.844 156.250 109.612 156.250 C 103.723 156.250,103.906 156.151,103.906 159.336 C 103.906 176.192,132.034 179.590,137.467 163.391 C 140.540 154.227,136.843 148.051,124.766 142.172 C 116.360 138.080,114.703 136.480,115.503 133.227 C 116.847 127.760,126.206 128.014,127.140 133.542 L 127.416 135.178 132.556 135.070 L 137.695 134.961 137.811 132.777 C 138.285 123.790,127.310 116.949,116.535 119.516 M159.431 119.755 C 151.605 121.860,145.704 129.110,144.509 138.084 C 143.848 143.057,144.224 155.731,145.118 158.594 C 151.501 179.025,179.893 179.023,185.797 158.591 C 186.749 155.295,187.000 141.082,186.184 136.712 C 183.814 124.034,171.810 116.425,159.431 119.755 M200.781 120.296 L 195.117 120.508 195.117 146.650 L 195.117 172.792 203.516 172.929 C 224.512 173.272,230.650 169.853,230.650 157.813 C 230.650 152.400,229.571 149.926,225.843 146.791 L 224.582 145.731 226.198 144.115 C 228.854 141.459,229.494 139.597,229.481 134.570 C 229.453 124.209,223.169 119.659,209.375 120.010 C 207.764 120.051,203.896 120.180,200.781 120.296 M259.071 120.240 L 257.790 120.364 257.899 125.319 L 258.008 130.273 264.551 130.381 L 271.094 130.488 271.159 150.107 C 271.220 168.443,271.249 170.902,271.419 172.168 C 271.468 172.532,272.873 172.656,276.953 172.656 L 282.422 172.656 282.422 151.563 L 282.422 130.469 288.867 130.469 L 295.313 130.469 295.313 125.391 C 295.313 122.598,295.181 120.297,295.020 120.279 C 294.106 120.174,260.135 120.138,259.071 120.240 M239.007 120.801 C 238.930 121.069,238.914 132.847,238.970 146.973 L 239.074 172.656 244.732 172.656 L 250.391 172.656 250.391 146.484 L 250.391 120.313 244.768 120.313 C 240.605 120.313,239.110 120.439,239.007 120.801 M170.240 131.017 C 174.158 133.043,175.200 136.386,175.182 146.875 C 175.167 155.581,174.952 156.728,172.739 159.926 C 168.673 165.801,158.523 163.649,156.436 156.469 C 155.385 152.857,155.744 137.968,156.940 135.545 C 159.509 130.339,165.189 128.405,170.240 131.017 M216.796 131.054 C 219.645 133.633,219.357 138.795,216.251 140.830 C 215.556 141.285,213.980 141.532,210.763 141.691 L 206.250 141.913 206.250 135.955 L 206.250 129.998 211.092 130.136 C 215.266 130.254,216.053 130.381,216.796 131.054 M215.275 151.177 C 218.043 151.946,219.141 153.654,219.141 157.194 C 219.141 161.530,217.144 162.833,210.449 162.869 L 206.250 162.891 206.250 156.836 L 206.250 150.781 210.059 150.783 C 212.153 150.785,214.501 150.962,215.275 151.177 M98.926 177.628 C 99.731 177.713,101.050 177.713,101.855 177.628 C 102.661 177.544,102.002 177.475,100.391 177.475 C 98.779 177.475,98.120 177.544,98.926 177.628 M298.242 177.654 C 295.214 177.831,295.313 177.355,295.313 191.844 C 295.313 202.982,295.233 204.711,294.695 205.249 C 294.146 205.798,292.017 205.856,275.652 205.766 L 257.227 205.664 257.031 196.094 C 256.822 185.844,256.708 185.239,254.627 183.346 C 252.320 181.248,252.335 181.250,236.376 181.250 L 221.541 181.250 220.731 183.413 C 220.286 184.603,219.922 185.657,219.922 185.757 C 219.922 185.856,226.789 185.938,235.182 185.938 C 254.834 185.938,253.125 184.842,253.125 197.442 L 253.125 205.859 247.704 205.859 C 241.094 205.859,241.231 205.760,241.219 210.534 C 241.207 215.324,241.085 215.234,247.650 215.234 L 253.016 215.234 253.230 217.593 C 253.661 222.346,252.281 224.219,248.346 224.219 C 246.244 224.219,245.906 224.100,244.883 223.006 C 243.774 221.818,243.686 221.795,240.685 221.931 C 236.435 222.124,236.328 222.251,236.328 227.102 C 236.328 231.972,236.500 232.150,241.136 232.090 C 244.673 232.045,245.222 231.746,245.388 229.775 L 245.508 228.360 247.712 228.464 C 250.706 228.606,253.063 227.912,254.622 226.432 C 256.596 224.556,256.802 223.965,257.022 219.531 L 257.227 215.430 277.148 215.234 C 290.956 215.099,297.370 214.901,298.047 214.590 C 300.406 213.504,302.426 211.618,303.345 209.645 L 304.289 207.617 304.287 193.359 C 304.286 185.518,304.130 178.857,303.940 178.557 C 303.528 177.906,300.937 177.496,298.242 177.654 M146.437 205.579 C 146.605 205.746,149.014 205.834,151.790 205.772 L 156.836 205.661 151.483 205.467 C 148.539 205.361,146.268 205.411,146.437 205.579 M114.551 205.761 C 119.653 205.823,128.003 205.823,133.105 205.761 C 138.208 205.700,134.033 205.649,123.828 205.649 C 113.623 205.649,109.448 205.700,114.551 205.761 M113.601 215.527 C 118.826 215.589,127.264 215.589,132.351 215.527 C 137.439 215.465,133.164 215.415,122.852 215.415 C 112.539 215.415,108.376 215.466,113.601 215.527 M120.009 222.483 C 119.229 223.029,119.141 223.425,119.141 226.367 C 119.141 230.357,119.590 230.859,123.159 230.859 C 126.748 230.859,126.953 230.637,126.953 226.744 C 126.953 222.511,126.454 221.875,123.134 221.875 C 121.723 221.875,120.551 222.103,120.009 222.483 M274.098 222.574 C 273.066 223.714,273.141 229.892,274.193 230.455 C 275.252 231.022,279.792 230.962,280.578 230.371 C 281.715 229.517,281.572 222.170,280.432 222.874 C 280.227 223.001,280.107 222.872,280.166 222.588 C 280.356 221.675,274.923 221.662,274.098 222.574 M163.019 227.539 C 163.021 229.043,163.091 229.610,163.176 228.800 C 163.260 227.989,163.259 226.759,163.173 226.066 C 163.086 225.372,163.017 226.035,163.019 227.539 M149.112 228.407 C 149.806 228.493,151.036 228.495,151.847 228.410 C 152.657 228.326,152.090 228.255,150.586 228.253 C 149.082 228.251,148.419 228.321,149.112 228.407 M153.606 229.688 C 153.606 230.439,153.687 230.747,153.785 230.371 C 153.883 229.995,153.883 229.380,153.785 229.004 C 153.687 228.628,153.606 228.936,153.606 229.688 M156.738 232.316 C 157.544 232.400,158.862 232.400,159.668 232.316 C 160.474 232.232,159.814 232.163,158.203 232.163 C 156.592 232.163,155.933 232.232,156.738 232.316 M154.013 245.313 C 154.013 246.279,154.089 246.675,154.182 246.191 C 154.275 245.708,154.275 244.917,154.182 244.434 C 154.089 243.950,154.013 244.346,154.013 245.313 M232.184 255.859 C 232.184 258.760,232.246 259.946,232.321 258.496 C 232.396 257.046,232.396 254.673,232.321 253.223 C 232.246 251.772,232.184 252.959,232.184 255.859 M242.695 256.250 C 242.695 257.432,242.768 257.915,242.858 257.324 C 242.947 256.733,242.947 255.767,242.858 255.176 C 242.768 254.585,242.695 255.068,242.695 256.250 M154.005 258.008 C 154.009 258.867,154.089 259.173,154.183 258.687 C 154.276 258.201,154.272 257.498,154.175 257.124 C 154.077 256.751,154.000 257.148,154.005 258.008 M157.537 259.275 C 159.212 259.348,161.849 259.348,163.397 259.274 C 164.945 259.200,163.574 259.140,160.352 259.141 C 157.129 259.141,155.863 259.202,157.537 259.275 M232.365 261.818 C 232.561 262.014,233.138 262.110,233.646 262.030 C 234.428 261.907,234.373 261.852,233.289 261.672 C 232.512 261.544,232.148 261.601,232.365 261.818 M236.230 261.994 C 236.714 262.088,237.505 262.088,237.988 261.994 C 238.472 261.901,238.076 261.825,237.109 261.825 C 236.143 261.825,235.747 261.901,236.230 261.994 M154.027 269.727 C 154.029 271.016,154.102 271.496,154.189 270.794 C 154.276 270.092,154.274 269.037,154.185 268.450 C 154.096 267.863,154.025 268.438,154.027 269.727 M266.271 268.457 C 266.371 268.618,268.277 268.750,270.508 268.750 C 272.738 268.750,274.645 268.618,274.744 268.457 C 274.844 268.296,272.937 268.164,270.508 268.164 C 268.078 268.164,266.172 268.296,266.271 268.457 M197.962 268.648 C 199.097 268.727,200.855 268.726,201.869 268.646 C 202.882 268.566,201.953 268.501,199.805 268.502 C 197.656 268.503,196.827 268.569,197.962 268.648 M232.193 277.344 C 232.193 281.318,232.251 282.944,232.322 280.957 C 232.393 278.970,232.393 275.718,232.322 273.730 C 232.251 271.743,232.193 273.369,232.193 277.344 M195.605 276.854 C 197.593 276.924,200.845 276.924,202.832 276.854 C 204.819 276.783,203.193 276.725,199.219 276.725 C 195.244 276.725,193.618 276.783,195.605 276.854 M263.536 276.855 C 263.436 277.017,265.403 277.102,267.907 277.046 C 276.309 276.858,277.199 276.714,270.433 276.638 C 266.740 276.596,263.636 276.694,263.536 276.855 M154.043 281.250 C 154.043 283.076,154.110 283.823,154.192 282.910 C 154.275 281.997,154.275 280.503,154.192 279.590 C 154.110 278.677,154.043 279.424,154.043 281.250 M123.156 285.053 C 124.183 285.134,125.765 285.133,126.672 285.051 C 127.579 284.969,126.738 284.903,124.805 284.904 C 122.871 284.905,122.129 284.972,123.156 285.053 M146.973 285.045 C 147.563 285.135,148.530 285.135,149.121 285.045 C 149.712 284.956,149.229 284.883,148.047 284.883 C 146.865 284.883,146.382 284.956,146.973 285.045 M151.079 285.042 C 151.565 285.135,152.268 285.132,152.641 285.034 C 153.015 284.936,152.617 284.860,151.758 284.864 C 150.898 284.868,150.593 284.948,151.079 285.042 " stroke="none" fill="#0f3ca6" fill-rule="evenodd" data-index="3" style="opacity: 1;"></path></g></svg>