<svg version="1.1" id="Layer_1" xmlns="http://www.w3.org/2000/svg" xmlns:xlink="http://www.w3.org/1999/xlink" x="0px" y="0px"
	 width="100%" viewBox="0 0 2000 217" enable-background="new 0 0 2000 217" xml:space="preserve">
<path fill="#4C6971" opacity="1.000000" stroke="none" 
	d="
M1487.000000,218.000000 
	C991.389038,218.000000 496.278107,218.000000 1.083584,218.000000 
	C1.083584,145.730621 1.083584,73.461105 1.083584,1.095794 
	C667.666687,1.095794 1334.333374,1.095794 2000.970581,1.095794 
	C2000.970581,73.388863 2000.970581,145.694443 2000.970581,218.000000 
	C1829.794067,218.000000 1658.647095,218.000000 1487.000000,218.000000 
M1806.958984,49.959686 
	C1806.958984,49.959686 1806.941528,49.902920 1806.329956,50.210037 
	C1799.124268,54.938702 1795.252686,61.937668 1792.284668,70.476295 
	C1791.856323,74.070099 1791.064087,77.663071 1791.055786,81.257851 
	C1790.966309,120.247391 1790.999146,159.237213 1791.000488,198.226959 
	C1791.000732,206.773056 1792.210693,207.997101 1800.735107,207.997681 
	C1858.719849,208.001633 1916.704590,207.999908 1974.689331,207.999680 
	C1977.022095,207.999680 1979.354858,207.976990 1981.687500,207.998856 
	C1986.011230,208.039383 1988.315308,206.015930 1989.054810,201.653961 
	C1990.015381,195.987244 1991.979004,190.444351 1992.486694,184.756714 
	C1993.523804,173.137939 2001.279419,162.332672 1996.705200,150.014740 
	C1996.389160,149.163895 1997.404419,147.874130 1997.639160,146.754593 
	C1999.738525,136.745163 1999.937866,126.756668 1997.030884,116.856750 
	C1995.890015,112.971321 1993.512451,110.719681 1989.104004,110.973015 
	C1979.071289,111.549576 1969.633789,113.689476 1961.504272,120.097992 
	C1959.985596,121.294998 1957.699219,122.508232 1955.977051,122.259621 
	C1951.818726,121.659386 1947.784668,120.199303 1943.448608,119.017242 
	C1942.938110,117.102043 1942.788086,114.437431 1941.547607,112.455307 
	C1940.206665,110.312737 1937.992676,107.478615 1935.907104,107.250053 
	C1925.781250,106.140381 1916.106079,108.331535 1907.592896,114.053291 
	C1903.334961,116.915039 1899.653931,120.635414 1895.973267,123.746590 
	C1892.188232,119.170830 1889.462036,113.290443 1884.903442,110.890747 
	C1874.726807,105.533463 1873.913574,97.371445 1874.982544,87.809097 
	C1875.111206,86.657135 1874.944824,85.475319 1875.008423,84.312431 
	C1875.905151,67.900993 1868.669678,55.711349 1855.267212,46.931843 
	C1852.654053,45.219975 1851.633423,43.395050 1851.980957,40.456379 
	C1852.386475,37.028843 1852.147705,33.914024 1854.218750,30.345133 
	C1856.267822,26.814472 1854.818726,21.285751 1855.014771,16.638134 
	C1855.184814,12.609877 1853.360840,10.918058 1849.345337,10.969030 
	C1840.515747,11.081110 1831.683838,11.000773 1822.852783,11.000280 
	C1810.998047,10.999619 1810.968262,11.000279 1811.021851,22.908482 
	C1811.033691,25.544279 1810.546509,28.584026 1811.651245,30.739809 
	C1815.334473,37.928059 1815.080200,43.225899 1809.320679,48.002533 
	C1808.514404,48.649578 1807.708008,49.296623 1806.958984,49.959686 
M1529.948120,118.176567 
	C1529.630615,116.234863 1529.425537,114.266792 1528.977661,112.355675 
	C1525.772339,98.680489 1520.896484,85.801292 1510.365479,75.910759 
	C1501.990723,68.045021 1492.200928,62.476433 1481.686401,57.780998 
	C1458.685425,47.509754 1434.752197,46.289509 1410.265991,49.111347 
	C1395.581909,50.803570 1382.486938,56.837013 1369.791504,64.037895 
	C1357.597656,70.954308 1348.401733,80.788696 1342.494873,93.276497 
	C1333.441528,112.416336 1330.327393,132.485550 1334.957642,153.516968 
	C1339.901123,175.971313 1350.935669,193.707977 1372.223389,204.107758 
	C1385.245239,210.469315 1399.007690,214.162415 1413.285034,215.937317 
	C1427.960083,217.761627 1442.779785,218.468765 1457.235596,214.922791 
	C1467.232178,212.470657 1476.942627,208.726883 1486.621216,205.130386 
	C1505.281860,198.196198 1518.418335,185.295807 1525.474243,166.730347 
	C1528.271118,159.371246 1529.575684,151.445023 1531.814087,142.793411 
	C1501.368164,144.261429 1472.400513,139.671707 1444.258545,143.462753 
	C1442.502930,149.737778 1441.382446,155.754883 1439.110718,161.300247 
	C1436.793335,166.956985 1431.762817,167.655518 1427.842285,163.171494 
	C1425.753784,160.782639 1423.902222,157.774582 1423.103271,154.740692 
	C1419.542480,141.218140 1420.731567,127.465523 1422.314941,113.828995 
	C1422.853638,109.188622 1424.517212,104.490433 1426.618408,100.295372 
	C1427.754395,98.027466 1430.861450,95.508575 1433.146851,95.442482 
	C1435.008667,95.388641 1437.871704,98.480492 1438.713501,100.759918 
	C1440.900757,106.682709 1442.219482,112.926285 1444.102905,119.860176 
	C1445.764038,120.239952 1447.423584,120.940643 1449.086670,120.949600 
	C1464.736450,121.033836 1480.388062,120.887596 1496.036865,121.038940 
	C1506.800293,121.143044 1517.559814,121.651566 1528.323486,121.793274 
	C1528.814453,121.799736 1529.329590,119.972992 1529.948120,118.176567 
M1738.984985,208.230042 
	C1734.505859,198.843597 1730.060059,189.441116 1725.540771,180.074051 
	C1716.137207,160.583252 1706.656860,141.129349 1697.349487,121.592796 
	C1696.692261,120.212959 1696.531616,117.886330 1697.258057,116.664886 
	C1707.027710,100.239532 1717.075684,83.979836 1726.861206,67.563766 
	C1729.422607,63.266823 1731.321411,58.574959 1733.887939,53.320625 
	C1702.893188,53.320625 1673.166260,53.320625 1643.426880,53.320625 
	C1636.588989,73.738731 1629.800781,94.008675 1623.012573,114.278625 
	C1622.413208,114.186211 1621.813721,114.093788 1621.214355,114.001373 
	C1621.214355,77.487144 1621.214355,40.972908 1621.214355,4.354964 
	C1592.323730,4.354964 1564.435181,4.354964 1536.277710,4.354964 
	C1536.277710,73.591881 1536.277710,142.473831 1536.277710,211.290985 
	C1546.173584,213.623749 1608.997681,213.668930 1621.999634,211.298965 
	C1621.999634,209.644287 1621.999634,207.864151 1621.999634,206.084030 
	C1621.999756,190.258865 1621.742554,174.426895 1622.160645,158.612778 
	C1622.282227,154.013779 1624.333984,149.465790 1625.500854,144.894424 
	C1625.956421,144.980896 1626.411987,145.067383 1626.867432,145.153854 
	C1627.582764,147.499786 1628.239868,149.865295 1629.022339,152.188583 
	C1635.630615,171.810471 1642.261597,191.424637 1649.102173,211.860291 
	C1650.757812,212.240463 1652.412720,212.947861 1654.069336,212.952011 
	C1681.469238,213.020599 1708.869141,213.005188 1736.269165,212.988449 
	C1737.699341,212.987579 1739.129639,212.807205 1741.193604,212.667480 
	C1740.302856,211.081131 1739.704102,210.014893 1738.984985,208.230042 
M972.995361,146.500000 
	C972.996338,166.999420 973.054321,187.499146 972.944092,207.997971 
	C972.924927,211.559082 973.941711,213.112823 977.758545,213.054230 
	C1007.539429,212.597107 1037.322510,212.281876 1067.104614,211.899567 
	C1067.558716,211.893738 1068.009277,211.592941 1068.966553,211.247559 
	C1068.966553,203.885727 1069.775635,196.319580 1068.783569,188.997498 
	C1067.155029,176.979538 1067.895264,165.143127 1070.198242,153.467697 
	C1073.083252,138.841003 1080.229858,127.049820 1096.067749,123.601059 
	C1102.750000,122.145973 1109.732910,122.071182 1116.601562,121.366669 
	C1116.601562,97.242897 1116.601562,72.846375 1116.601562,48.518459 
	C1093.910522,44.841583 1061.992920,59.152023 1056.384766,86.018867 
	C1055.945190,88.125244 1054.142944,89.947205 1052.973999,91.901367 
	C1051.984741,89.713135 1050.511475,87.614082 1050.089111,85.321419 
	C1048.130005,74.688362 1046.462402,64.001617 1044.606812,52.830833 
	C1028.302734,52.830833 1012.391846,52.830833 995.999207,52.830833 
	C995.999207,41.448845 996.015686,30.649292 995.993042,19.849821 
	C995.979126,13.215193 995.765320,12.960989 989.330750,13.010627 
	C948.881042,13.322674 908.431763,13.689038 867.981873,13.983043 
	C855.316040,14.075103 842.648926,13.999209 829.982422,14.000057 
	C826.195129,14.000310 822.407776,14.000096 818.112976,14.000096 
	C818.112976,31.054386 818.022034,47.500530 818.209900,63.943493 
	C818.238464,66.444725 819.725220,68.168495 823.082214,68.095474 
	C834.743164,67.841805 846.413574,68.056946 858.079407,67.973335 
	C862.170715,67.944016 864.866272,69.235275 865.011292,73.767822 
	C865.336853,83.943100 865.964783,94.119278 865.927063,104.293083 
	C865.872803,118.910667 865.294189,133.525665 865.014526,148.143219 
	C864.639282,167.758896 864.298828,187.375427 864.022156,206.992706 
	C863.930115,213.519928 866.456909,215.990311 872.920959,215.994263 
	C895.754028,216.008209 918.587036,216.006836 941.420105,215.987885 
	C943.175171,215.986435 944.930115,215.802811 947.247253,215.672165 
	C947.247253,165.536591 947.247253,115.968323 947.247253,66.811905 
	C956.057129,66.811905 964.248779,66.811905 972.995361,66.811905 
	C972.995361,93.579987 972.995361,119.539993 972.995361,146.500000 
M168.500000,215.001419 
	C179.497726,214.999359 190.495514,214.976044 201.493149,215.007736 
	C204.930969,215.017654 207.083145,214.201355 207.055542,209.983917 
	C206.632843,145.380386 206.323181,80.776123 205.961563,16.172180 
	C205.956314,15.235943 205.624496,14.301535 205.354218,12.892628 
	C198.200485,12.892628 191.225418,12.990292 184.254074,12.870995 
	C172.137192,12.663645 160.023331,12.208369 147.906448,12.129772 
	C145.374130,12.113346 142.945663,12.866372 142.916046,16.729094 
	C142.801453,31.677927 142.177170,46.622566 142.035309,61.571548 
	C141.866119,79.399788 141.997192,97.230881 141.998184,115.060738 
	C141.998276,116.868568 141.998199,118.676399 141.998199,120.426567 
	C136.874359,122.076485 137.237274,117.574753 136.514984,115.679459 
	C123.906845,82.595062 111.470871,49.444016 99.255180,16.212725 
	C98.043114,12.915466 96.687134,11.883825 93.331215,11.937888 
	C65.721657,12.382671 38.109554,12.669947 10.498232,13.005517 
	C9.998401,13.011592 9.495534,12.991664 8.999381,13.039186 
	C6.289242,13.298761 4.999132,14.545512 4.945362,17.522274 
	C4.780659,26.640308 4.183137,35.750694 4.028563,44.868713 
	C3.608528,69.645813 3.305913,94.425034 3.009424,119.204041 
	C2.917721,126.868118 2.994652,134.534210 2.995262,142.199387 
	C2.997026,164.361740 3.069672,186.524490 2.940679,208.686081 
	C2.915478,213.015717 4.837472,216.257736 8.639443,216.742828 
	C14.372266,217.474289 20.274572,216.947556 26.102919,216.845810 
	C38.886036,216.622696 51.677258,215.928879 64.446686,216.224884 
	C71.544830,216.389435 71.996742,216.714722 71.998100,209.437302 
	C72.003876,178.443344 71.999382,147.449387 71.998642,116.455429 
	C71.998596,114.479454 71.998634,112.503479 71.998634,110.527504 
	C72.523544,110.213516 73.048454,109.899529 73.573372,109.585541 
	C74.732788,110.992386 76.374969,112.218216 76.980347,113.832794 
	C89.063507,146.059525 101.075912,178.313141 112.942596,210.620102 
	C114.194275,214.027771 115.974144,215.111969 119.510139,215.074524 
	C135.505234,214.905090 151.503113,215.001068 168.500000,215.001419 
M227.035782,163.149475 
	C227.694397,166.705765 228.239441,170.287552 229.030716,173.814072 
	C233.093567,191.921371 243.479843,204.809555 260.704834,212.043350 
	C270.818176,216.290573 281.376556,217.487762 292.240814,217.022522 
	C302.565002,216.580383 312.108795,213.769562 320.153564,207.224594 
	C325.349152,202.997604 329.961090,198.053207 334.923553,193.345917 
	C336.794861,199.386871 338.722290,205.609009 340.565491,211.559189 
	C365.863861,211.559189 390.750549,211.559189 415.586639,211.559189 
	C417.119171,198.218185 416.014008,61.737556 414.339966,53.479446 
	C413.922974,53.353554 413.460266,53.092159 412.997192,53.091465 
	C386.511139,53.051819 360.025055,53.013775 333.539032,53.035725 
	C329.645966,53.038948 327.871185,54.689053 327.899628,59.093506 
	C328.093079,89.077126 328.024689,119.062653 327.956512,149.047379 
	C327.950592,151.652939 327.556824,154.309479 326.952301,156.849289 
	C326.116394,160.361099 324.672974,163.087677 320.091248,163.115768 
	C315.494049,163.143982 313.320740,160.633667 312.206543,156.978058 
	C311.356323,154.188675 311.057770,151.136459 311.049835,148.199692 
	C310.969727,118.548203 311.000153,88.896408 310.999542,59.244701 
	C310.999512,57.318192 310.999573,55.391685 310.999573,52.774250 
	C282.230255,53.295750 254.261734,53.802738 227.009293,54.296745 
	C227.009293,90.723808 227.009293,126.478767 227.035782,163.149475 
M1310.035034,82.546410 
	C1302.109741,67.005592 1288.951294,58.044613 1272.767212,52.864014 
	C1257.005859,47.818733 1240.743164,47.962063 1224.457397,47.937370 
	C1207.102295,47.911060 1190.428223,51.086384 1174.129639,56.997959 
	C1156.439087,63.414360 1144.604614,75.212395 1139.408813,93.344223 
	C1138.095825,97.926086 1137.581055,102.736732 1136.598022,107.983849 
	C1162.672363,107.983849 1187.471802,107.968826 1212.271240,108.004349 
	C1215.120972,108.008430 1215.829590,106.583588 1216.070312,103.979469 
	C1216.414917,100.249992 1216.869751,96.428772 1218.038574,92.898750 
	C1220.439209,85.648483 1229.364380,83.497200 1235.017944,88.522102 
	C1240.886475,93.738129 1242.942383,102.702499 1240.115479,110.860046 
	C1238.700195,114.944206 1236.509766,118.212372 1231.844360,119.133125 
	C1225.734985,120.338844 1219.710205,122.159874 1213.551025,122.889076 
	C1197.183105,124.826927 1180.708740,125.913231 1164.375122,128.080978 
	C1135.193481,131.953903 1126.519287,151.253616 1129.383423,174.911865 
	C1132.621460,201.657944 1155.425171,216.046310 1179.822754,216.857910 
	C1187.181641,217.102722 1194.804443,216.511154 1201.943481,214.794052 
	C1217.055786,211.159149 1232.642944,207.967270 1243.040039,194.540558 
	C1243.317505,194.182144 1243.843872,194.016403 1244.450195,193.638580 
	C1246.364258,198.949753 1248.219727,204.141861 1250.108643,209.321854 
	C1251.057495,211.923615 1252.699219,213.087021 1255.725342,213.067841 
	C1276.879395,212.933823 1298.034790,213.031677 1319.189331,212.942398 
	C1321.107910,212.934311 1323.022949,212.130997 1324.939697,211.696976 
	C1324.399292,211.436951 1323.858887,211.176910 1323.318481,210.916885 
	C1322.212891,199.254883 1320.633057,187.612488 1320.149414,175.924744 
	C1319.753052,166.343704 1321.043213,156.702271 1320.881348,147.099472 
	C1320.725708,137.863235 1319.553955,128.648575 1319.031860,119.412941 
	C1318.318848,106.798698 1315.958252,94.602867 1310.035034,82.546410 
M552.032898,212.711472 
	C552.329773,212.146973 552.886047,211.582260 552.885620,211.018036 
	C552.872925,195.028824 552.806824,179.039642 552.719299,163.050613 
	C552.718079,162.826324 552.335876,162.604126 552.862488,163.179138 
	C547.662354,162.739624 543.288635,162.203445 538.900818,162.035812 
	C531.194092,161.741455 528.013245,158.683243 528.005371,151.081192 
	C527.987244,133.581406 527.991760,116.081573 528.013550,98.581795 
	C528.015747,96.826698 528.199036,95.071831 528.330139,92.753319 
	C535.470093,92.753319 542.048035,92.753319 548.601196,92.753319 
	C548.601196,79.912971 548.601196,67.679939 548.601196,54.851040 
	C541.301758,54.851040 534.392578,54.851040 526.901855,54.851040 
	C526.901855,40.018482 526.901855,25.778830 526.901855,11.324396 
	C499.066406,11.324396 471.834351,11.324396 443.823761,11.324396 
	C443.823761,25.996992 443.823761,40.362923 443.823761,55.299606 
	C438.472168,55.299606 433.899780,55.299606 429.424011,55.299606 
	C429.424011,68.139885 429.424011,80.373550 429.424011,93.201218 
	C434.749939,93.201218 439.658722,93.201218 444.998596,93.201218 
	C444.998596,101.102028 444.920959,108.408592 445.012909,115.713020 
	C445.308044,139.159393 444.899261,162.649689 446.263550,186.035446 
	C447.204529,202.164917 459.402679,211.974594 474.633118,212.671738 
	C500.077667,213.836441 525.616272,212.945633 552.032898,212.711472 
M565.998657,163.500000 
	C565.998657,179.898148 565.998657,196.296310 565.998657,212.143326 
	C598.108276,212.143326 629.288940,212.143326 661.000305,212.143326 
	C661.000305,200.169846 660.612671,189.032486 661.117249,177.935699 
	C661.557495,168.252792 662.153320,158.429688 664.215332,149.004349 
	C666.913147,136.673248 674.266541,127.312469 687.144470,124.212708 
	C694.416931,122.462204 702.031372,122.132767 709.637329,121.144302 
	C709.637329,97.298149 709.637329,72.914345 709.637329,48.344131 
	C691.352356,46.318707 675.825928,51.796738 662.222107,63.298439 
	C654.391174,69.919296 651.393677,79.260735 648.194092,88.496941 
	C647.753845,89.767616 646.556763,90.776077 645.710022,91.905937 
	C644.819519,90.674820 643.373535,89.545212 643.127075,88.196388 
	C641.294678,78.170036 639.301819,68.142967 638.215271,58.024220 
	C637.738831,53.587612 636.029541,52.927544 632.298035,52.947556 
	C611.813721,53.057434 591.328552,52.993980 570.843628,53.017033 
	C569.399109,53.018658 567.954834,53.237442 565.998657,53.396988 
	C565.998657,89.970169 565.998657,126.235085 565.998657,163.500000 
M724.998657,191.499908 
	C724.998657,198.576004 724.998657,205.652084 724.998657,213.004761 
	C742.911194,213.004761 759.887085,213.005615 776.863037,213.004395 
	C785.522522,213.003769 794.182251,213.029282 802.841431,212.978409 
	C805.417786,212.963287 807.875854,212.719757 808.007751,209.145615 
	C808.264099,202.198700 808.987061,195.254440 808.933167,188.313614 
	C808.811768,172.708160 808.158020,157.106766 808.043274,141.501358 
	C807.879211,119.187683 808.114685,96.871010 807.936707,74.557549 
	C807.883118,67.840607 807.022339,61.130112 806.480530,53.721832 
	C779.916260,53.721832 753.617493,53.721832 727.510437,53.721832 
	C727.002869,74.203453 726.389160,94.456055 726.027222,114.713165 
	C725.575867,139.973541 725.332092,165.237610 724.998657,191.499908 
M764.500000,3.000066 
	C751.262390,3.000066 738.024719,3.000066 724.579285,3.000066 
	C725.122803,15.382051 725.656738,27.544983 726.186218,39.605968 
	C753.796753,39.605968 780.666260,39.605968 807.651245,39.605968 
	C807.651245,27.323187 807.651245,15.436969 807.651245,3.000066 
	C793.372864,3.000066 779.436462,3.000066 764.500000,3.000066 
z"/>
<path fill="#030303" opacity="1.000000" stroke="none" 
	d="
M972.995361,146.000000 
	C972.995361,119.539993 972.995361,93.579987 972.995361,66.811905 
	C964.248779,66.811905 956.057129,66.811905 947.247253,66.811905 
	C947.247253,115.968323 947.247253,165.536591 947.247253,215.672165 
	C944.930115,215.802811 943.175171,215.986435 941.420105,215.987885 
	C918.587036,216.006836 895.754028,216.008209 872.920959,215.994263 
	C866.456909,215.990311 863.930115,213.519928 864.022156,206.992706 
	C864.298828,187.375427 864.639282,167.758896 865.014526,148.143219 
	C865.294189,133.525665 865.872803,118.910667 865.927063,104.293083 
	C865.964783,94.119278 865.336853,83.943100 865.011292,73.767822 
	C864.866272,69.235275 862.170715,67.944016 858.079407,67.973335 
	C846.413574,68.056946 834.743164,67.841805 823.082214,68.095474 
	C819.725220,68.168495 818.238464,66.444725 818.209900,63.943493 
	C818.022034,47.500530 818.112976,31.054386 818.112976,14.000096 
	C822.407776,14.000096 826.195129,14.000310 829.982422,14.000057 
	C842.648926,13.999209 855.316040,14.075103 867.981873,13.983043 
	C908.431763,13.689038 948.881042,13.322674 989.330750,13.010627 
	C995.765320,12.960989 995.979126,13.215193 995.993042,19.849821 
	C996.015686,30.649292 995.999207,41.448845 995.999207,52.830833 
	C1012.391846,52.830833 1028.302734,52.830833 1044.606812,52.830833 
	C1046.462402,64.001617 1048.130005,74.688362 1050.089111,85.321419 
	C1050.511475,87.614082 1051.984741,89.713135 1052.973999,91.901360 
	C1054.142944,89.947205 1055.945190,88.125244 1056.384766,86.018867 
	C1061.992920,59.152023 1093.910522,44.841583 1116.601562,48.518459 
	C1116.601562,72.846375 1116.601562,97.242897 1116.601562,121.366669 
	C1109.732910,122.071182 1102.750000,122.145973 1096.067749,123.601059 
	C1080.229858,127.049820 1073.083252,138.841003 1070.198242,153.467697 
	C1067.895264,165.143127 1067.155029,176.979538 1068.783569,188.997498 
	C1069.775635,196.319580 1068.966553,203.885727 1068.966553,211.247559 
	C1068.009277,211.592941 1067.558716,211.893738 1067.104614,211.899567 
	C1037.322510,212.281876 1007.539429,212.597107 977.758545,213.054230 
	C973.941711,213.112823 972.924927,211.559082 972.944092,207.997971 
	C973.054321,187.499146 972.996338,166.999420 972.995361,146.000000 
z"/>
<path fill="#030303" opacity="1.000000" stroke="none" 
	d="
M168.000000,215.001434 
	C151.503113,215.001068 135.505234,214.905090 119.510139,215.074524 
	C115.974144,215.111969 114.194275,214.027771 112.942596,210.620102 
	C101.075912,178.313141 89.063507,146.059525 76.980347,113.832794 
	C76.374969,112.218216 74.732788,110.992386 73.573372,109.585541 
	C73.048454,109.899529 72.523544,110.213516 71.998634,110.527504 
	C71.998634,112.503479 71.998596,114.479454 71.998642,116.455429 
	C71.999382,147.449387 72.003876,178.443344 71.998100,209.437302 
	C71.996742,216.714722 71.544830,216.389435 64.446686,216.224884 
	C51.677258,215.928879 38.886036,216.622696 26.102919,216.845810 
	C20.274572,216.947556 14.372266,217.474289 8.639443,216.742828 
	C4.837472,216.257736 2.915478,213.015717 2.940679,208.686081 
	C3.069672,186.524490 2.997026,164.361740 2.995262,142.199387 
	C2.994652,134.534210 2.917721,126.868118 3.009424,119.204041 
	C3.305913,94.425034 3.608528,69.645813 4.028563,44.868713 
	C4.183137,35.750694 4.780659,26.640308 4.945362,17.522274 
	C4.999132,14.545512 6.289242,13.298761 8.999381,13.039186 
	C9.495534,12.991664 9.998401,13.011592 10.498232,13.005517 
	C38.109554,12.669947 65.721657,12.382671 93.331215,11.937888 
	C96.687134,11.883825 98.043114,12.915466 99.255180,16.212725 
	C111.470871,49.444016 123.906845,82.595062 136.514984,115.679459 
	C137.237274,117.574753 136.874359,122.076485 141.998199,120.426567 
	C141.998199,118.676399 141.998276,116.868568 141.998184,115.060738 
	C141.997192,97.230881 141.866119,79.399788 142.035309,61.571548 
	C142.177170,46.622566 142.801453,31.677927 142.916046,16.729094 
	C142.945663,12.866372 145.374130,12.113346 147.906448,12.129772 
	C160.023331,12.208369 172.137192,12.663645 184.254074,12.870995 
	C191.225418,12.990292 198.200485,12.892628 205.354218,12.892628 
	C205.624496,14.301535 205.956314,15.235943 205.961563,16.172180 
	C206.323181,80.776123 206.632843,145.380386 207.055542,209.983917 
	C207.083145,214.201355 204.930969,215.017654 201.493149,215.007736 
	C190.495514,214.976044 179.497726,214.999359 168.000000,215.001434 
z"/>
<path fill="#030303" opacity="1.000000" stroke="none" 
	d="
M1648.885864,211.041107 
	C1642.261597,191.424637 1635.630615,171.810471 1629.022339,152.188583 
	C1628.239868,149.865295 1627.582764,147.499786 1626.867432,145.153854 
	C1626.411987,145.067383 1625.956421,144.980896 1625.500854,144.894424 
	C1624.333984,149.465790 1622.282227,154.013779 1622.160645,158.612778 
	C1621.742554,174.426895 1621.999756,190.258865 1621.999634,206.084030 
	C1621.999634,207.864151 1621.999634,209.644287 1621.999634,211.298965 
	C1608.997681,213.668930 1546.173584,213.623749 1536.277710,211.290985 
	C1536.277710,142.473831 1536.277710,73.591881 1536.277710,4.354964 
	C1564.435181,4.354964 1592.323730,4.354964 1621.214355,4.354964 
	C1621.214355,40.972908 1621.214355,77.487144 1621.214355,114.001373 
	C1621.813721,114.093788 1622.413208,114.186211 1623.012573,114.278625 
	C1629.800781,94.008675 1636.588989,73.738731 1643.426880,53.320625 
	C1673.166260,53.320625 1702.893188,53.320625 1733.887939,53.320625 
	C1731.321411,58.574959 1729.422607,63.266823 1726.861206,67.563766 
	C1717.075684,83.979836 1707.027710,100.239532 1697.258057,116.664886 
	C1696.531616,117.886330 1696.692261,120.212959 1697.349487,121.592796 
	C1706.656860,141.129349 1716.137207,160.583252 1725.540771,180.074051 
	C1730.060059,189.441116 1734.505859,198.843597 1738.640869,208.710022 
	C1735.335938,209.459534 1732.375732,209.954071 1729.414185,209.962738 
	C1706.859985,210.028763 1684.305176,209.946518 1661.751221,210.047546 
	C1657.461426,210.066757 1653.174194,210.694260 1648.885864,211.041107 
z"/>
<path fill="#030303" opacity="1.000000" stroke="none" 
	d="
M227.022537,162.691605 
	C227.009293,126.478767 227.009293,90.723808 227.009293,54.296745 
	C254.261734,53.802738 282.230255,53.295750 310.999573,52.774250 
	C310.999573,55.391685 310.999512,57.318192 310.999542,59.244701 
	C311.000153,88.896408 310.969727,118.548203 311.049835,148.199692 
	C311.057770,151.136459 311.356323,154.188675 312.206543,156.978058 
	C313.320740,160.633667 315.494049,163.143982 320.091248,163.115768 
	C324.672974,163.087677 326.116394,160.361099 326.952301,156.849289 
	C327.556824,154.309479 327.950592,151.652939 327.956512,149.047379 
	C328.024689,119.062653 328.093079,89.077126 327.899628,59.093506 
	C327.871185,54.689053 329.645966,53.038948 333.539032,53.035725 
	C360.025055,53.013775 386.511139,53.051819 412.997192,53.091465 
	C413.460266,53.092159 413.922974,53.353554 414.339966,53.479446 
	C416.014008,61.737556 417.119171,198.218185 415.586639,211.559189 
	C390.750549,211.559189 365.863861,211.559189 340.565491,211.559189 
	C338.722290,205.609009 336.794861,199.386871 334.923553,193.345917 
	C329.961090,198.053207 325.349152,202.997604 320.153564,207.224594 
	C312.108795,213.769562 302.565002,216.580383 292.240814,217.022522 
	C281.376556,217.487762 270.818176,216.290573 260.704834,212.043350 
	C243.479843,204.809555 233.093567,191.921371 229.030716,173.814072 
	C228.239441,170.287552 227.694397,166.705765 227.022537,162.691605 
z"/>
<path fill="#030303" opacity="1.000000" stroke="none" 
	d="
M1310.283936,82.827011 
	C1315.958252,94.602867 1318.318848,106.798698 1319.031860,119.412941 
	C1319.553955,128.648575 1320.725708,137.863235 1320.881348,147.099472 
	C1321.043213,156.702271 1319.753052,166.343704 1320.149414,175.924744 
	C1320.633057,187.612488 1322.212891,199.254883 1323.318481,210.916885 
	C1323.858887,211.176910 1324.399292,211.436951 1324.939697,211.696976 
	C1323.022949,212.130997 1321.107910,212.934311 1319.189331,212.942398 
	C1298.034790,213.031677 1276.879395,212.933823 1255.725342,213.067841 
	C1252.699219,213.087021 1251.057495,211.923615 1250.108643,209.321854 
	C1248.219727,204.141861 1246.364258,198.949753 1244.450195,193.638580 
	C1243.843872,194.016403 1243.317505,194.182144 1243.040039,194.540558 
	C1232.642944,207.967270 1217.055786,211.159149 1201.943481,214.794052 
	C1194.804443,216.511154 1187.181641,217.102722 1179.822754,216.857910 
	C1155.425171,216.046310 1132.621460,201.657944 1129.383423,174.911865 
	C1126.519287,151.253616 1135.193481,131.953903 1164.375122,128.080978 
	C1180.708740,125.913231 1197.183105,124.826927 1213.551025,122.889076 
	C1219.710205,122.159874 1225.734985,120.338844 1231.844360,119.133125 
	C1236.509766,118.212372 1238.700195,114.944206 1240.115479,110.860046 
	C1242.942383,102.702499 1240.886475,93.738129 1235.017944,88.522102 
	C1229.364380,83.497200 1220.439209,85.648483 1218.038574,92.898750 
	C1216.869751,96.428772 1216.414917,100.249992 1216.070312,103.979469 
	C1215.829590,106.583588 1215.120972,108.008430 1212.271240,108.004349 
	C1187.471802,107.968826 1162.672363,107.983849 1136.598022,107.983849 
	C1137.581055,102.736732 1138.095825,97.926086 1139.408813,93.344223 
	C1144.604614,75.212395 1156.439087,63.414360 1174.129639,56.997959 
	C1190.428223,51.086384 1207.102295,47.911060 1224.457397,47.937370 
	C1240.743164,47.962063 1257.005859,47.818733 1272.767212,52.864014 
	C1288.951294,58.044613 1302.109741,67.005592 1310.283936,82.827011 
M1229.305786,143.859802 
	C1217.234497,147.773178 1213.093140,157.168335 1218.870361,167.533646 
	C1222.237183,173.574051 1227.234253,176.310837 1232.635132,174.623703 
	C1237.992920,172.950073 1243.059082,171.135925 1242.048828,161.879883 
	C1241.743652,159.084732 1241.997437,156.228470 1241.996948,153.400208 
	C1241.996094,148.714432 1241.996826,144.028656 1241.996826,138.847977 
	C1237.326172,140.655426 1233.656982,142.075348 1229.305786,143.859802 
z"/>
<path fill="#030303" opacity="1.000000" stroke="none" 
	d="
M1443.884766,119.041847 
	C1442.219482,112.926285 1440.900757,106.682709 1438.713501,100.759918 
	C1437.871704,98.480492 1435.008667,95.388641 1433.146851,95.442482 
	C1430.861450,95.508575 1427.754395,98.027466 1426.618408,100.295372 
	C1424.517212,104.490433 1422.853638,109.188622 1422.314941,113.828995 
	C1420.731567,127.465523 1419.542480,141.218140 1423.103271,154.740692 
	C1423.902222,157.774582 1425.753784,160.782639 1427.842285,163.171494 
	C1431.762817,167.655518 1436.793335,166.956985 1439.110718,161.300247 
	C1441.382446,155.754883 1442.502930,149.737778 1444.258545,143.462753 
	C1472.400513,139.671707 1501.368164,144.261429 1531.814087,142.793411 
	C1529.575684,151.445023 1528.271118,159.371246 1525.474243,166.730347 
	C1518.418335,185.295807 1505.281860,198.196198 1486.621216,205.130386 
	C1476.942627,208.726883 1467.232178,212.470657 1457.235596,214.922791 
	C1442.779785,218.468765 1427.960083,217.761627 1413.285034,215.937317 
	C1399.007690,214.162415 1385.245239,210.469315 1372.223389,204.107758 
	C1350.935669,193.707977 1339.901123,175.971313 1334.957642,153.516968 
	C1330.327393,132.485550 1333.441528,112.416336 1342.494873,93.276497 
	C1348.401733,80.788696 1357.597656,70.954308 1369.791504,64.037895 
	C1382.486938,56.837013 1395.581909,50.803570 1410.265991,49.111347 
	C1434.752197,46.289509 1458.685425,47.509754 1481.686401,57.780998 
	C1492.200928,62.476433 1501.990723,68.045021 1510.365479,75.910759 
	C1520.896484,85.801292 1525.772339,98.680489 1528.977661,112.355675 
	C1529.425537,114.266792 1529.630615,116.234863 1529.432861,118.588310 
	C1500.573242,119.013985 1472.229004,119.027916 1443.884766,119.041847 
z"/>
<path fill="#030303" opacity="1.000000" stroke="none" 
	d="
M551.574097,212.815796 
	C525.616272,212.945633 500.077667,213.836441 474.633118,212.671738 
	C459.402679,211.974594 447.204529,202.164917 446.263550,186.035446 
	C444.899261,162.649689 445.308044,139.159393 445.012909,115.713020 
	C444.920959,108.408592 444.998596,101.102028 444.998596,93.201218 
	C439.658722,93.201218 434.749939,93.201218 429.424011,93.201218 
	C429.424011,80.373550 429.424011,68.139885 429.424011,55.299606 
	C433.899780,55.299606 438.472168,55.299606 443.823761,55.299606 
	C443.823761,40.362923 443.823761,25.996992 443.823761,11.324396 
	C471.834351,11.324396 499.066406,11.324396 526.901855,11.324396 
	C526.901855,25.778830 526.901855,40.018482 526.901855,54.851040 
	C534.392578,54.851040 541.301758,54.851040 548.601196,54.851040 
	C548.601196,67.679939 548.601196,79.912971 548.601196,92.753319 
	C542.048035,92.753319 535.470093,92.753319 528.330139,92.753319 
	C528.199036,95.071831 528.015747,96.826698 528.013550,98.581795 
	C527.991760,116.081573 527.987244,133.581406 528.005371,151.081192 
	C528.013245,158.683243 531.194092,161.741455 538.900818,162.035812 
	C543.288635,162.203445 547.662354,162.739624 552.862488,163.179138 
	C552.335876,162.604126 552.718079,162.826324 552.719299,163.050613 
	C552.806824,179.039642 552.872925,195.028824 552.885620,211.018036 
	C552.886047,211.582260 552.329773,212.146973 551.574097,212.815796 
z"/>
<path fill="#030303" opacity="1.000000" stroke="none" 
	d="
M565.998657,163.000000 
	C565.998657,126.235085 565.998657,89.970169 565.998657,53.396988 
	C567.954834,53.237442 569.399109,53.018658 570.843628,53.017033 
	C591.328552,52.993980 611.813721,53.057434 632.298035,52.947556 
	C636.029541,52.927544 637.738831,53.587612 638.215271,58.024220 
	C639.301819,68.142967 641.294678,78.170036 643.127075,88.196388 
	C643.373535,89.545212 644.819519,90.674820 645.710022,91.905930 
	C646.556763,90.776077 647.753845,89.767616 648.194092,88.496941 
	C651.393677,79.260735 654.391174,69.919296 662.222107,63.298439 
	C675.825928,51.796738 691.352356,46.318707 709.637329,48.344131 
	C709.637329,72.914345 709.637329,97.298149 709.637329,121.144302 
	C702.031372,122.132767 694.416931,122.462204 687.144470,124.212708 
	C674.266541,127.312469 666.913147,136.673248 664.215332,149.004349 
	C662.153320,158.429688 661.557495,168.252792 661.117249,177.935699 
	C660.612671,189.032486 661.000305,200.169846 661.000305,212.143326 
	C629.288940,212.143326 598.108276,212.143326 565.998657,212.143326 
	C565.998657,196.296310 565.998657,179.898148 565.998657,163.000000 
z"/>
<path fill="#030303" opacity="1.000000" stroke="none" 
	d="
M1809.958496,47.883194 
	C1815.080200,43.225899 1815.334473,37.928059 1811.651245,30.739809 
	C1810.546509,28.584026 1811.033691,25.544279 1811.021851,22.908482 
	C1810.968262,11.000279 1810.998047,10.999619 1822.852783,11.000280 
	C1831.683838,11.000773 1840.515747,11.081110 1849.345337,10.969030 
	C1853.360840,10.918058 1855.184814,12.609877 1855.014771,16.638134 
	C1854.818726,21.285751 1856.267822,26.814472 1854.218750,30.345133 
	C1852.147705,33.914024 1852.386475,37.028843 1851.980957,40.456379 
	C1851.633423,43.395050 1852.654053,45.219975 1855.267212,46.931843 
	C1868.669678,55.711349 1875.905151,67.900993 1875.008423,84.312431 
	C1874.944824,85.475319 1875.111206,86.657135 1874.982544,87.809097 
	C1873.913574,97.371445 1874.726807,105.533463 1884.903442,110.890747 
	C1889.462036,113.290443 1892.188232,119.170830 1895.973267,123.746590 
	C1899.653931,120.635414 1903.334961,116.915039 1907.592896,114.053291 
	C1916.106079,108.331535 1925.781250,106.140381 1935.907104,107.250053 
	C1937.992676,107.478615 1940.206665,110.312737 1941.547607,112.455307 
	C1942.788086,114.437431 1942.938110,117.102043 1943.448608,119.017242 
	C1947.784668,120.199303 1951.818726,121.659386 1955.977051,122.259621 
	C1957.699219,122.508232 1959.985596,121.294998 1961.504272,120.097992 
	C1969.633789,113.689476 1979.071289,111.549576 1989.104004,110.973015 
	C1993.512451,110.719681 1995.890015,112.971321 1997.030884,116.856750 
	C1999.937866,126.756668 1999.738525,136.745163 1997.639160,146.754593 
	C1997.404419,147.874130 1996.389160,149.163895 1996.705200,150.014740 
	C2001.279419,162.332672 1993.523804,173.137939 1992.486694,184.756714 
	C1991.979004,190.444351 1990.015381,195.987244 1989.054810,201.653961 
	C1988.315308,206.015930 1986.011230,208.039383 1981.687500,207.998856 
	C1979.354858,207.976990 1977.022095,207.999680 1974.689331,207.999680 
	C1916.704590,207.999908 1858.719849,208.001633 1800.735107,207.997681 
	C1792.210693,207.997101 1791.000732,206.773056 1791.000488,198.226959 
	C1790.999146,159.237213 1790.966309,120.247391 1791.055786,81.257851 
	C1791.064087,77.663071 1791.856323,74.070099 1792.866333,70.030602 
	C1797.486816,64.247047 1801.571655,58.942741 1805.524170,53.541714 
	C1806.267090,52.526661 1806.482666,51.125748 1806.941528,49.902927 
	C1806.941528,49.902920 1806.958984,49.959686 1807.227783,49.848217 
	C1808.317139,49.118896 1809.137817,48.501045 1809.958496,47.883194 
M1914.140625,147.890549 
	C1915.845459,148.342209 1917.550293,148.793854 1919.218506,149.235809 
	C1919.965210,145.310394 1920.565674,142.154129 1921.494385,138.618652 
	C1922.696411,135.534027 1920.383301,134.928284 1919.163574,136.582947 
	C1916.887939,139.669846 1915.693726,143.554108 1914.140625,147.890549 
M1823.950684,190.446823 
	C1821.974243,181.628342 1819.866821,172.836411 1818.072754,163.981003 
	C1817.058716,158.976593 1814.856689,153.720642 1819.704590,149.196365 
	C1820.293823,148.646347 1820.024414,146.930252 1819.822144,145.814590 
	C1817.093628,130.774902 1827.559937,119.362747 1837.989258,118.022507 
	C1843.524170,117.311226 1849.225586,117.896515 1854.888428,117.896515 
	C1862.433228,111.607262 1864.140869,102.888481 1863.041870,93.195129 
	C1862.762207,90.728500 1862.987061,88.203110 1863.002197,85.704857 
	C1863.085815,71.982643 1857.151855,61.916828 1844.705200,55.950356 
	C1840.626099,53.995018 1838.742432,51.088600 1838.951538,46.522507 
	C1839.168457,41.781437 1838.999756,37.022720 1838.999756,32.437607 
	C1834.503784,32.437607 1830.936768,32.437607 1826.995361,32.437607 
	C1826.995361,37.680206 1826.900024,42.493374 1827.024170,47.300880 
	C1827.132568,51.499611 1825.189331,54.135921 1821.458374,55.793610 
	C1809.419556,61.142506 1803.170288,70.651260 1803.082153,83.615273 
	C1802.843018,118.757027 1802.996460,153.901474 1803.010254,189.044861 
	C1803.010986,190.829971 1803.158813,192.615021 1803.250977,194.690399 
	C1810.379517,194.690399 1817.131470,194.690399 1823.987915,194.690399 
	C1823.987915,193.486862 1823.987915,192.372726 1823.950684,190.446823 
M1833.140259,175.172256 
	C1834.338379,179.955139 1836.194580,184.688812 1836.556885,189.534180 
	C1836.948975,194.779099 1839.556641,195.081802 1843.728638,195.070984 
	C1886.541016,194.959991 1929.353638,195.002914 1972.166260,195.002853 
	C1973.952393,195.002853 1975.738403,195.002838 1977.443604,195.002838 
	C1979.825562,183.841141 1982.072510,173.311783 1984.412109,162.348541 
	C1932.781860,162.348541 1882.075439,162.348541 1830.910278,162.348541 
	C1831.668457,166.616013 1832.353394,170.471069 1833.140259,175.172256 
M1876.154175,134.259995 
	C1877.285767,139.144821 1878.417480,144.029633 1879.509888,148.744812 
	C1887.836426,149.299164 1888.707764,148.015030 1887.387573,140.581940 
	C1885.627441,130.672394 1881.557495,122.493652 1872.125000,117.383987 
	C1865.291138,123.980385 1862.559448,132.219955 1862.964478,141.799377 
	C1863.270386,149.034119 1864.531616,150.094254 1872.081787,148.116272 
	C1871.182983,143.674957 1870.046143,139.228958 1869.453125,134.711609 
	C1869.062134,131.735001 1866.985840,127.166382 1871.479858,126.339737 
	C1876.331909,125.447258 1875.198486,130.543655 1876.154175,134.259995 
M1973.820068,127.117340 
	C1972.280640,128.056747 1970.581421,128.816528 1969.255615,129.996124 
	C1968.308594,130.838608 1967.119507,132.395523 1967.318237,133.373581 
	C1968.344849,138.426254 1969.784058,143.395096 1971.232178,148.982498 
	C1973.995117,148.982498 1977.288696,149.173401 1980.539429,148.883942 
	C1981.755127,148.775696 1983.511353,147.810364 1983.930176,146.788574 
	C1986.948242,139.426361 1988.545654,131.906052 1984.972412,123.569893 
	C1981.336914,124.767494 1977.961792,125.879356 1973.820068,127.117340 
M1933.028931,146.374542 
	C1933.777954,147.231918 1934.507568,148.812973 1935.279297,148.833817 
	C1942.370361,149.025406 1949.468506,148.946655 1956.371094,148.946655 
	C1959.172974,137.907608 1952.243408,133.235718 1945.660278,132.228485 
	C1940.630127,131.458862 1931.310669,137.199814 1933.028931,146.374542 
M1843.439087,149.003235 
	C1845.847290,149.003235 1848.255615,149.003235 1850.423828,149.003235 
	C1850.423828,142.660217 1850.423828,137.143112 1850.423828,130.334229 
	C1847.234985,130.244186 1843.712769,129.508118 1840.493286,130.193604 
	C1834.759277,131.414505 1831.221436,137.848892 1832.022705,144.080597 
	C1832.885864,150.792267 1838.040527,148.655823 1842.002441,149.001404 
	C1842.167358,149.015793 1842.334717,149.003250 1843.439087,149.003235 
M1907.960571,145.575150 
	C1911.055908,140.183105 1914.157227,134.794464 1917.245117,129.398087 
	C1920.281982,124.090836 1921.702271,123.915894 1925.906128,128.535553 
	C1927.739380,125.971313 1931.975586,124.820259 1930.609741,120.375587 
	C1915.879028,119.136299 1900.396729,133.714020 1900.505615,148.737518 
	C1903.256348,149.000244 1906.116577,149.909683 1907.960571,145.575150 
z"/>
<path fill="#030303" opacity="1.000000" stroke="none" 
	d="
M724.998657,191.000000 
	C725.332092,165.237610 725.575867,139.973541 726.027222,114.713165 
	C726.389160,94.456055 727.002869,74.203453 727.510437,53.721832 
	C753.617493,53.721832 779.916260,53.721832 806.480530,53.721832 
	C807.022339,61.130112 807.883118,67.840607 807.936707,74.557549 
	C808.114685,96.871010 807.879211,119.187683 808.043274,141.501358 
	C808.158020,157.106766 808.811768,172.708160 808.933167,188.313614 
	C808.987061,195.254440 808.264099,202.198700 808.007751,209.145615 
	C807.875854,212.719757 805.417786,212.963287 802.841431,212.978409 
	C794.182251,213.029282 785.522522,213.003769 776.863037,213.004395 
	C759.887085,213.005615 742.911194,213.004761 724.998657,213.004761 
	C724.998657,205.652084 724.998657,198.576004 724.998657,191.000000 
z"/>
<path fill="#030303" opacity="1.000000" stroke="none" 
	d="
M765.000000,3.000066 
	C779.436462,3.000066 793.372864,3.000066 807.651245,3.000066 
	C807.651245,15.436969 807.651245,27.323187 807.651245,39.605968 
	C780.666260,39.605968 753.796753,39.605968 726.186218,39.605968 
	C725.656738,27.544983 725.122803,15.382051 724.579285,3.000066 
	C738.024719,3.000066 751.262390,3.000066 765.000000,3.000066 
z"/>
<path fill="#020202" opacity="1.000000" stroke="none" 
	d="
M1648.994019,211.450699 
	C1653.174194,210.694260 1657.461426,210.066757 1661.751221,210.047546 
	C1684.305176,209.946518 1706.859985,210.028763 1729.414185,209.962738 
	C1732.375732,209.954071 1735.335938,209.459534 1738.701050,209.069336 
	C1739.704102,210.014893 1740.302856,211.081131 1741.193604,212.667480 
	C1739.129639,212.807205 1737.699341,212.987579 1736.269165,212.988449 
	C1708.869141,213.005188 1681.469238,213.020599 1654.069336,212.952011 
	C1652.412720,212.947861 1650.757812,212.240463 1648.994019,211.450699 
z"/>
<path fill="#030303" opacity="1.000000" stroke="none" 
	d="
M1443.993896,119.451012 
	C1472.229004,119.027916 1500.573242,119.013985 1529.375488,119.000061 
	C1529.329590,119.972992 1528.814453,121.799736 1528.323486,121.793274 
	C1517.559814,121.651566 1506.800293,121.143044 1496.036865,121.038940 
	C1480.388062,120.887596 1464.736450,121.033836 1449.086670,120.949600 
	C1447.423584,120.940643 1445.764038,120.239952 1443.993896,119.451012 
z"/>
<path fill="#030303" opacity="1.000000" stroke="none" 
	d="
M1806.635742,50.056488 
	C1806.482666,51.125748 1806.267090,52.526661 1805.524170,53.541714 
	C1801.571655,58.942741 1797.486816,64.247047 1793.165039,69.771881 
	C1795.252686,61.937668 1799.124268,54.938702 1806.635742,50.056488 
z"/>
<path fill="#030303" opacity="1.000000" stroke="none" 
	d="
M1809.639648,47.942863 
	C1809.137817,48.501045 1808.317139,49.118896 1807.199097,49.840206 
	C1807.708008,49.296623 1808.514404,48.649578 1809.639648,47.942863 
z"/>
<path fill="#4C6971" opacity="1.000000" stroke="none" 
	d="
M1229.646729,143.677536 
	C1233.656982,142.075348 1237.326172,140.655426 1241.996826,138.847977 
	C1241.996826,144.028656 1241.996094,148.714432 1241.996948,153.400208 
	C1241.997437,156.228470 1241.743652,159.084732 1242.048828,161.879883 
	C1243.059082,171.135925 1237.992920,172.950073 1232.635132,174.623703 
	C1227.234253,176.310837 1222.237183,173.574051 1218.870361,167.533646 
	C1213.093140,157.168335 1217.234497,147.773178 1229.646729,143.677536 
z"/>
<path fill="#4C6971" opacity="1.000000" stroke="none" 
	d="
M1823.969238,190.852722 
	C1823.987915,192.372726 1823.987915,193.486862 1823.987915,194.690399 
	C1817.131470,194.690399 1810.379517,194.690399 1803.250977,194.690399 
	C1803.158813,192.615021 1803.010986,190.829971 1803.010254,189.044861 
	C1802.996460,153.901474 1802.843018,118.757027 1803.082153,83.615273 
	C1803.170288,70.651260 1809.419556,61.142506 1821.458374,55.793610 
	C1825.189331,54.135921 1827.132568,51.499611 1827.024170,47.300880 
	C1826.900024,42.493374 1826.995361,37.680206 1826.995361,32.437607 
	C1830.936768,32.437607 1834.503784,32.437607 1838.999756,32.437607 
	C1838.999756,37.022720 1839.168457,41.781437 1838.951538,46.522507 
	C1838.742432,51.088600 1840.626099,53.995018 1844.705200,55.950356 
	C1857.151855,61.916828 1863.085815,71.982643 1863.002197,85.704857 
	C1862.987061,88.203110 1862.762207,90.728500 1863.041870,93.195129 
	C1864.140869,102.888481 1862.433228,111.607262 1854.888428,117.896515 
	C1849.225586,117.896515 1843.524170,117.311226 1837.989258,118.022507 
	C1827.559937,119.362747 1817.093628,130.774902 1819.822144,145.814590 
	C1820.024414,146.930252 1820.293823,148.646347 1819.704590,149.196365 
	C1814.856689,153.720642 1817.058716,158.976593 1818.072754,163.981003 
	C1819.866821,172.836411 1821.974243,181.628342 1823.969238,190.852722 
z"/>
<path fill="#4C6971" opacity="1.000000" stroke="none" 
	d="
M1833.089355,174.749207 
	C1832.353394,170.471069 1831.668457,166.616013 1830.910278,162.348541 
	C1882.075439,162.348541 1932.781860,162.348541 1984.412109,162.348541 
	C1982.072510,173.311783 1979.825562,183.841141 1977.443604,195.002838 
	C1975.738403,195.002838 1973.952393,195.002853 1972.166260,195.002853 
	C1929.353638,195.002914 1886.541016,194.959991 1843.728638,195.070984 
	C1839.556641,195.081802 1836.948975,194.779099 1836.556885,189.534180 
	C1836.194580,184.688812 1834.338379,179.955139 1833.089355,174.749207 
z"/>
<path fill="#4C6971" opacity="1.000000" stroke="none" 
	d="
M1876.098633,133.842560 
	C1875.198486,130.543655 1876.331909,125.447258 1871.479858,126.339737 
	C1866.985840,127.166382 1869.062134,131.735001 1869.453125,134.711609 
	C1870.046143,139.228958 1871.182983,143.674957 1872.081787,148.116272 
	C1864.531616,150.094254 1863.270386,149.034119 1862.964478,141.799377 
	C1862.559448,132.219955 1865.291138,123.980385 1872.125000,117.383987 
	C1881.557495,122.493652 1885.627441,130.672394 1887.387573,140.581940 
	C1888.707764,148.015030 1887.836426,149.299164 1879.509888,148.744812 
	C1878.417480,144.029633 1877.285767,139.144821 1876.098633,133.842560 
z"/>
<path fill="#4C6971" opacity="1.000000" stroke="none" 
	d="
M1974.203369,127.054276 
	C1977.961792,125.879356 1981.336914,124.767494 1984.972412,123.569893 
	C1988.545654,131.906052 1986.948242,139.426361 1983.930176,146.788574 
	C1983.511353,147.810364 1981.755127,148.775696 1980.539429,148.883942 
	C1977.288696,149.173401 1973.995117,148.982498 1971.232178,148.982498 
	C1969.784058,143.395096 1968.344849,138.426254 1967.318237,133.373581 
	C1967.119507,132.395523 1968.308594,130.838608 1969.255615,129.996124 
	C1970.581421,128.816528 1972.280640,128.056747 1974.203369,127.054276 
z"/>
<path fill="#4C6971" opacity="1.000000" stroke="none" 
	d="
M1933.019531,145.929108 
	C1931.310669,137.199814 1940.630127,131.458862 1945.660278,132.228485 
	C1952.243408,133.235718 1959.172974,137.907608 1956.371094,148.946655 
	C1949.468506,148.946655 1942.370361,149.025406 1935.279297,148.833817 
	C1934.507568,148.812973 1933.777954,147.231918 1933.019531,145.929108 
z"/>
<path fill="#4C6971" opacity="1.000000" stroke="none" 
	d="
M1842.969971,149.003235 
	C1842.334717,149.003250 1842.167358,149.015793 1842.002441,149.001404 
	C1838.040527,148.655823 1832.885864,150.792267 1832.022705,144.080597 
	C1831.221436,137.848892 1834.759277,131.414505 1840.493286,130.193604 
	C1843.712769,129.508118 1847.234985,130.244186 1850.423828,130.334229 
	C1850.423828,137.143112 1850.423828,142.660217 1850.423828,149.003235 
	C1848.255615,149.003235 1845.847290,149.003235 1842.969971,149.003235 
z"/>
<path fill="#4C6971" opacity="1.000000" stroke="none" 
	d="
M1907.701416,145.858200 
	C1906.116577,149.909683 1903.256348,149.000244 1900.505615,148.737518 
	C1900.396729,133.714020 1915.879028,119.136299 1930.609741,120.375587 
	C1931.975586,124.820259 1927.739380,125.971313 1925.906128,128.535553 
	C1921.702271,123.915894 1920.281982,124.090836 1917.245117,129.398087 
	C1914.157227,134.794464 1911.055908,140.183105 1907.701416,145.858200 
z"/>
<path fill="#4C6971" opacity="1.000000" stroke="none" 
	d="
M1921.166016,138.997864 
	C1920.565674,142.154129 1919.965210,145.310394 1919.218506,149.235809 
	C1917.550293,148.793854 1915.845459,148.342209 1914.397949,147.331146 
	C1916.316406,144.142410 1917.951538,141.495575 1919.687256,138.916382 
	C1919.828369,138.706757 1920.656982,138.959824 1921.166016,138.997864 
z"/>
<path fill="#030303" opacity="1.000000" stroke="none" 
	d="
M1921.330322,138.808258 
	C1920.656982,138.959824 1919.828369,138.706757 1919.687256,138.916382 
	C1917.951538,141.495575 1916.316406,144.142410 1914.352295,146.939148 
	C1915.693726,143.554108 1916.887939,139.669846 1919.163574,136.582947 
	C1920.383301,134.928284 1922.696411,135.534027 1921.330322,138.808258 
z"/>
</svg>